<svg xmlns="http://www.w3.org/2000/svg" viewBox="0 0 1280 240"><path d="M912.617 168C902.775 168 894.083 166.324 886.542 162.972C879 159.492 873.057 154.593 868.711 148.276C864.365 141.831 862.128 134.031 862 124.878H887.884C888.139 131.195 890.376 136.545 894.594 140.928C898.94 145.182 904.884 147.309 912.425 147.309C918.944 147.309 924.121 145.762 927.956 142.669C931.79 139.446 933.708 135.192 933.708 129.906C933.708 124.363 931.982 120.044 928.531 116.95C925.207 113.856 920.734 111.343 915.11 109.409C909.486 107.475 903.478 105.413 897.087 103.221C886.733 99.6114 878.808 94.9706 873.312 89.2984C867.944 83.6262 865.259 76.0847 865.259 66.674C865.132 58.6814 866.985 51.849 870.82 46.1768C874.782 40.3757 880.151 35.9282 886.925 32.8343C893.7 29.6114 901.497 28 910.316 28C919.264 28 927.125 29.6114 933.899 32.8343C940.802 36.0571 946.17 40.5691 950.005 46.3702C953.967 52.1713 956.076 59.0681 956.332 67.0608H930.065C929.937 62.291 928.083 58.1013 924.504 54.4917C921.053 50.7532 916.196 48.884 909.933 48.884C904.564 48.7551 900.027 50.1087 896.32 52.9448C892.741 55.6519 890.951 59.6483 890.951 64.9337C890.951 69.4457 892.357 73.0553 895.17 75.7624C897.982 78.3407 901.816 80.5322 906.673 82.337C911.531 84.1418 917.091 86.0755 923.354 88.1381C930.001 90.4586 936.072 93.1658 941.569 96.2597C947.065 99.3536 951.475 103.479 954.798 108.635C958.121 113.663 959.783 120.173 959.783 128.166C959.783 135.256 957.994 141.831 954.415 147.89C950.836 153.948 945.531 158.847 938.501 162.586C931.471 166.195 922.843 168 912.617 168Z" fill="#FF6B52"></path><path d="M1009.57 168C1001.39 168 994.681 166.711 989.44 164.133C984.199 161.425 980.301 157.88 977.744 153.497C975.188 149.114 973.91 144.28 973.91 138.995C973.91 130.099 977.361 122.88 984.263 117.337C991.166 111.794 1001.52 109.022 1015.32 109.022H1039.48V106.702C1039.48 100.127 1037.63 95.2928 1033.92 92.1989C1030.21 89.105 1025.61 87.558 1020.12 87.558C1015.13 87.558 1010.79 88.7827 1007.08 91.2321C1003.37 93.5525 1001.07 97.0332 1000.18 101.674H976.211C976.85 94.7127 979.15 88.6538 983.113 83.4973C987.203 78.3407 992.444 74.4089 998.835 71.7017C1005.23 68.8656 1012.38 67.4475 1020.31 67.4475C1033.86 67.4475 1044.53 70.8637 1052.33 77.6961C1060.13 84.5286 1064.02 94.1971 1064.02 106.702V165.68H1043.12L1040.82 150.21C1038.01 155.367 1034.05 159.621 1028.94 162.972C1023.95 166.324 1017.5 168 1009.57 168ZM1015.13 148.663C1022.16 148.663 1027.59 146.343 1031.43 141.702C1035.39 137.061 1037.88 131.324 1038.91 124.492H1018.01C1011.49 124.492 1006.82 125.716 1004.01 128.166C1001.2 130.486 999.794 133.387 999.794 136.867C999.794 140.606 1001.2 143.506 1004.01 145.569C1006.82 147.632 1010.53 148.663 1015.13 148.663Z" fill="#FF6B52"></path><path d="M1116.39 168C1108.21 168 1101.5 166.711 1096.26 164.133C1091.02 161.425 1087.12 157.88 1084.57 153.497C1082.01 149.114 1080.73 144.28 1080.73 138.995C1080.73 130.099 1084.18 122.88 1091.09 117.337C1097.99 111.794 1108.34 109.022 1122.15 109.022H1146.3V106.702C1146.3 100.127 1144.45 95.2928 1140.74 92.1989C1137.04 89.105 1132.44 87.558 1126.94 87.558C1121.96 87.558 1117.61 88.7827 1113.9 91.2321C1110.2 93.5525 1107.89 97.0332 1107 101.674H1083.03C1083.67 94.7127 1085.97 88.6538 1089.94 83.4973C1094.03 78.3407 1099.27 74.4089 1105.66 71.7017C1112.05 68.8656 1119.21 67.4475 1127.13 67.4475C1140.68 67.4475 1151.35 70.8637 1159.15 77.6961C1166.95 84.5286 1170.85 94.1971 1170.85 106.702V165.68H1149.95L1147.65 150.21C1144.83 155.367 1140.87 159.621 1135.76 162.972C1130.77 166.324 1124.32 168 1116.39 168ZM1121.96 148.663C1128.99 148.663 1134.42 146.343 1138.25 141.702C1142.21 137.061 1144.71 131.324 1145.73 124.492H1124.83C1118.31 124.492 1113.65 125.716 1110.83 128.166C1108.02 130.486 1106.62 133.387 1106.62 136.867C1106.62 140.606 1108.02 143.506 1110.83 145.569C1113.65 147.632 1117.35 148.663 1121.96 148.663Z" fill="#FF6B52"></path><path d="M1232.83 168C1222.99 168 1214.3 166.324 1206.76 162.972C1199.22 159.492 1193.27 154.593 1188.93 148.276C1184.58 141.831 1182.34 134.031 1182.22 124.878H1208.1C1208.36 131.195 1210.59 136.545 1214.81 140.928C1219.16 145.182 1225.1 147.309 1232.64 147.309C1239.16 147.309 1244.34 145.762 1248.17 142.669C1252.01 139.446 1253.92 135.192 1253.92 129.906C1253.92 124.363 1252.2 120.044 1248.75 116.95C1245.42 113.856 1240.95 111.343 1235.33 109.409C1229.7 107.475 1223.69 105.413 1217.3 103.221C1206.95 99.6114 1199.03 94.9706 1193.53 89.2984C1188.16 83.6262 1185.48 76.0847 1185.48 66.674C1185.35 58.6814 1187.2 51.849 1191.04 46.1768C1195 40.3757 1200.37 35.9282 1207.14 32.8343C1213.92 29.6114 1221.71 28 1230.53 28C1239.48 28 1247.34 29.6114 1254.12 32.8343C1261.02 36.0571 1266.39 40.5691 1270.22 46.3702C1274.18 52.1713 1276.29 59.0681 1276.55 67.0608H1250.28C1250.15 62.291 1248.3 58.1013 1244.72 54.4917C1241.27 50.7532 1236.41 48.884 1230.15 48.884C1224.78 48.7551 1220.24 50.1087 1216.54 52.9448C1212.96 55.6519 1211.17 59.6483 1211.17 64.9337C1211.17 69.4457 1212.57 73.0553 1215.39 75.7624C1218.2 78.3407 1222.03 80.5322 1226.89 82.337C1231.75 84.1418 1237.31 86.0755 1243.57 88.1381C1250.22 90.4586 1256.29 93.1658 1261.79 96.2597C1267.28 99.3536 1271.69 103.479 1275.02 108.635C1278.34 113.663 1280 120.173 1280 128.166C1280 135.256 1278.21 141.831 1274.63 147.89C1271.05 153.948 1265.75 158.847 1258.72 162.586C1251.69 166.195 1243.06 168 1232.83 168Z" fill="#FF6B52"></path><path d="M340 169.098V33.6177H389.763C400.523 33.6177 409.425 35.4241 416.47 39.0369C423.515 42.6497 428.766 47.6173 432.225 53.9398C435.683 60.2622 437.413 67.3588 437.413 75.2295C437.413 82.7132 435.747 89.6162 432.417 95.9386C429.087 102.132 423.899 107.164 416.854 111.035C409.809 114.777 400.779 116.648 389.763 116.648H364.593V169.098H340ZM364.593 96.5193H388.226C396.808 96.5193 402.956 94.6484 406.671 90.9065C410.514 87.0357 412.435 81.81 412.435 75.2295C412.435 68.52 410.514 63.2943 406.671 59.5525C402.956 55.6816 396.808 53.7462 388.226 53.7462H364.593V96.5193Z" fill="#223354"></path><path d="M452.288 169.098V73.1005H474.191L476.497 91.1001C479.955 84.9067 484.631 80.0036 490.523 76.3908C496.543 72.6489 503.588 70.778 511.658 70.778V96.9064H504.741C499.361 96.9064 494.558 97.7451 490.331 99.4224C486.104 101.1 482.773 104.003 480.34 108.132C478.034 112.261 476.881 118.003 476.881 125.357V169.098H452.288Z" fill="#223354"></path><path d="M568.663 171.421C559.441 171.421 551.115 169.292 543.686 165.034C536.385 160.776 530.557 154.905 526.201 147.421C521.975 139.808 519.861 131.034 519.861 121.099C519.861 111.164 522.039 102.455 526.394 94.9709C530.749 87.3582 536.577 81.4229 543.878 77.1649C551.307 72.907 559.633 70.778 568.855 70.778C577.95 70.778 586.148 72.907 593.449 77.1649C600.878 81.4229 606.706 87.3582 610.933 94.9709C615.288 102.455 617.466 111.164 617.466 121.099C617.466 131.034 615.288 139.808 610.933 147.421C606.706 154.905 600.878 160.776 593.449 165.034C586.02 169.292 577.758 171.421 568.663 171.421ZM568.663 149.937C575.068 149.937 580.64 147.55 585.379 142.776C590.118 137.873 592.488 130.647 592.488 121.099C592.488 111.551 590.118 104.39 585.379 99.616C580.64 94.7129 575.132 92.2613 568.855 92.2613C562.323 92.2613 556.687 94.7129 551.948 99.616C547.336 104.39 545.031 111.551 545.031 121.099C545.031 130.647 547.336 137.873 551.948 142.776C556.687 147.55 562.259 149.937 568.663 149.937Z" fill="#223354"></path><path d="M669.956 140.454C665.345 140.454 661.054 139.937 657.083 138.905L649.974 146.066C652.152 147.228 655.098 148.195 658.812 148.969C662.527 149.744 668.547 150.518 676.873 151.292C689.554 152.453 698.776 155.485 704.54 160.389C710.305 165.292 713.187 172.066 713.187 180.711C713.187 186.388 711.649 191.743 708.575 196.775C705.501 201.936 700.762 206.065 694.357 209.161C687.953 212.387 679.755 214 669.764 214C656.186 214 645.235 211.419 636.909 206.258C628.583 201.226 624.42 193.613 624.42 183.42C624.42 174.775 628.583 167.292 636.909 160.969C634.347 159.808 632.105 158.582 630.184 157.292C628.391 156.002 626.79 154.647 625.381 153.227V148.776L642.096 130.97C634.667 124.39 630.953 115.938 630.953 105.616C630.953 99.1644 632.49 93.2936 635.564 88.0034C638.766 82.7132 643.249 78.5198 649.013 75.4231C654.777 72.3264 661.758 70.778 669.956 70.778C675.336 70.778 680.331 71.5522 684.943 73.1005H721.064V88.1969L704.733 89.3582C707.294 94.2613 708.575 99.6805 708.575 105.616C708.575 112.067 707.038 117.938 703.964 123.228C700.89 128.518 696.407 132.712 690.515 135.809C684.75 138.905 677.898 140.454 669.956 140.454ZM669.956 121.486C674.952 121.486 679.051 120.132 682.253 117.422C685.583 114.712 687.248 110.841 687.248 105.809C687.248 100.777 685.583 96.9064 682.253 94.1968C679.051 91.4872 674.952 90.1323 669.956 90.1323C664.704 90.1323 660.477 91.4872 657.275 94.1968C654.073 96.9064 652.472 100.777 652.472 105.809C652.472 110.841 654.073 114.712 657.275 117.422C660.477 120.132 664.704 121.486 669.956 121.486ZM646.9 180.904C646.9 185.678 649.077 189.227 653.432 191.549C657.916 194.001 663.359 195.226 669.764 195.226C675.912 195.226 680.908 193.936 684.751 191.355C688.593 188.904 690.515 185.549 690.515 181.291C690.515 177.807 689.234 174.904 686.672 172.582C684.238 170.259 679.307 168.84 671.877 168.324C666.626 167.937 661.758 167.356 657.275 166.582C653.561 168.646 650.871 170.904 649.205 173.356C647.668 175.807 646.9 178.324 646.9 180.904Z" fill="#223354"></path><path d="M735.154 169.098V73.1005H757.058L759.363 91.1001C762.822 84.9067 767.497 80.0036 773.389 76.3908C779.41 72.6489 786.455 70.778 794.524 70.778V96.9064H787.607C782.228 96.9064 777.424 97.7451 773.197 99.4224C768.97 101.1 765.64 104.003 763.206 108.132C760.901 112.261 759.748 118.003 759.748 125.357V169.098H735.154Z" fill="#223354"></path><path d="M808.451 169.098V73.1005H833.044V169.098H808.451Z" fill="#223354"></path><path d="M838 42.034C838 50.8893 830.821 58.068 821.966 58.068C813.111 58.068 805.932 50.8893 805.932 42.034C805.932 33.1787 813.111 26 821.966 26C830.821 26 838 33.1787 838 42.034Z" fill="#223354"></path><path d="M32 35.3577V66.3705L145.446 64.5548C157.137 64.3677 166.711 74.0741 166.711 86.1127V195.734L223.682 205.79C232.21 207.295 240 200.532 240 191.623V15.813C240 6.37083 232.015 -0.96647 222.904 0.103884L44.3773 21.0767C37.3256 21.9051 32 28.0498 32 35.3577Z" fill="#FF6B52"></path><path d="M16 94.2791V112.199L48.4131 117.263C49.9449 117.502 51.5009 117.572 53.038 117.774C62.8494 119.067 70.2872 128.426 70.2872 139.013V214.321L134.534 231.584C142.365 233.688 150 227.546 150 219.142V99.0703C150 89.7269 142.795 82.1059 133.804 81.9383L29.9902 80.0023C22.3046 79.859 16 86.2927 16 94.2791Z" fill="#FF6B52"></path><mask id="mask0" maskUnits="userSpaceOnUse" x="16" y="80" width="134" height="152"><path d="M16 94.2791V112.199L50.7143 117.622C61.6806 118.199 70.2872 127.605 70.2872 139.013V214.321L134.534 231.584C142.365 233.688 150 227.546 150 219.142V99.0703C150 89.7269 142.795 82.1059 133.804 81.9383L29.9902 80.0023C22.3046 79.859 16 86.2927 16 94.2791Z" fill="#FF6B52"></path></mask><g mask="url(#mask0)"><path d="M33.8711 156.203V77.1602H156.189V198.618L55.5958 181.849C43.0593 179.759 33.8711 168.912 33.8711 156.203Z" fill="#39B14A"></path></g><path d="M0 219.07L0 136.959C0 129.028 6.70557 122.959 14.1515 124.15L42.3822 128.665C49.063 129.734 54 135.782 54 142.898V228.473C54 236.48 46.4325 242.044 39.2945 239.284L4.47993 225.827C1.7888 224.787 0 222.089 0 219.07Z" fill="#1080D0"></path><mask id="mask1" maskUnits="userSpaceOnUse" x="0" y="124" width="54" height="116"><path d="M0 219.07L0 136.959C0 129.028 6.70557 122.959 14.1515 124.15L42.3822 128.665C49.063 129.734 54 135.782 54 142.898V228.473C54 236.48 46.4325 242.044 39.2945 239.284L4.47992 225.827C1.7888 224.787 0 222.089 0 219.07Z" fill="#FFDA54"></path></mask><g mask="url(#mask1)"><path d="M14.3555 179.17V121.137L63.5707 128V214.939L33.9975 206.003C22.3477 202.483 14.3555 191.565 14.3555 179.17Z" fill="#FF6B52"></path><path d="M32.1328 159.92V125.434L62.8923 129.73V184.15L46.155 179.084C37.8376 176.567 32.1328 168.771 32.1328 159.92Z" fill="#39B14A"></path></g></svg>